<svg width="41" height="32" viewBox="0 0 41 32" fill="none" xmlns="http://www.w3.org/2000/svg">
<path d="M31.2639 11.9997H21.5264V15.5C21.5264 17.9814 19.4572 20.0003 16.9139 20.0003C14.3707 20.0003 12.3014 17.9814 12.3014 15.5V7.89932L8.14379 10.337C6.90739 11.0558 6.15145 12.3622 6.15145 13.7623V16.7188L1.02646 19.6066C0.0463048 20.1566 -0.293226 21.3817 0.276929 22.338L5.40192 31.0013C5.96567 31.9576 7.22129 32.2826 8.20145 31.7326L14.8255 28.001H23.5764C25.8378 28.001 27.6764 26.2071 27.6764 24.0007H28.7014C29.8353 24.0007 30.7514 23.1068 30.7514 22.0005V18.0002H31.2639C32.1159 18.0002 32.8014 17.3314 32.8014 16.5V13.4998C32.8014 12.6685 32.1159 11.9997 31.2639 11.9997ZM40.7259 9.66196L35.6009 0.998732C35.0372 0.0424016 33.7816 -0.282626 32.8014 0.267421L26.1774 3.99899H19.6302C18.8614 3.99899 18.1119 4.2115 17.4585 4.60529L15.3124 5.91165C14.7102 6.27418 14.3514 6.91798 14.3514 7.60554V15.5C14.3514 16.8813 15.4982 18.0002 16.9139 18.0002C18.3297 18.0002 19.4764 16.8813 19.4764 15.5V9.99949H31.2639C33.2434 9.99949 34.8514 11.5684 34.8514 13.4998V15.2812L39.9764 12.3934C40.9565 11.8371 41.2897 10.6183 40.7259 9.66196Z" fill="#0063EE"/>
</svg>
