<svg width="21" height="18" viewBox="0 0 21 18" fill="none" xmlns="http://www.w3.org/2000/svg">
<path d="M0.789341 3.30612H19.9443C20.3512 3.30612 20.681 2.97721 20.681 2.57143V0.734694C20.681 0.328913 20.3512 0 19.9443 0H0.789341C0.382437 0 0.0526123 0.328913 0.0526123 0.734694V2.57143C0.0526123 2.97721 0.382437 3.30612 0.789341 3.30612ZM0.789341 10.6531H19.9443C20.3512 10.6531 20.681 10.3241 20.681 9.91837V8.08163C20.681 7.67585 20.3512 7.34694 19.9443 7.34694H0.789341C0.382437 7.34694 0.0526123 7.67585 0.0526123 8.08163V9.91837C0.0526123 10.3241 0.382437 10.6531 0.789341 10.6531ZM0.789341 18H19.9443C20.3512 18 20.681 17.6711 20.681 17.2653V15.4286C20.681 15.0228 20.3512 14.6939 19.9443 14.6939H0.789341C0.382437 14.6939 0.0526123 15.0228 0.0526123 15.4286V17.2653C0.0526123 17.6711 0.382437 18 0.789341 18Z" fill="#EFEDFF"/>
</svg>
