<svg width="11" height="15" viewBox="0 0 11 15" fill="none" xmlns="http://www.w3.org/2000/svg">
<path d="M4.96045 14.2175C0.987461 8.45788 0.25 7.86676 0.25 5.75C0.25 2.8505 2.6005 0.5 5.5 0.5C8.3995 0.5 10.75 2.8505 10.75 5.75C10.75 7.86676 10.0125 8.45788 6.03955 14.2175C5.77882 14.5942 5.22115 14.5941 4.96045 14.2175ZM5.5 7.9375C6.70813 7.9375 7.6875 6.95813 7.6875 5.75C7.6875 4.54187 6.70813 3.5625 5.5 3.5625C4.29187 3.5625 3.3125 4.54187 3.3125 5.75C3.3125 6.95813 4.29187 7.9375 5.5 7.9375Z" fill="#161616"/>
</svg>
