<svg width="269" height="31" viewBox="0 0 269 31" fill="none" xmlns="http://www.w3.org/2000/svg">
<mask id="path-1-outside-1_12_126" maskUnits="userSpaceOnUse" x="-1" y="3.5" width="59" height="28" fill="black">
<rect fill="white" x="-1" y="3.5" width="59" height="28"/>
<path d="M1.44 29.5V6.316H8.856L14.112 17.008L19.296 6.316H26.712V29.5H18.972V19.636L16.092 25.54H12.06L9.18 19.636V29.5H1.44ZM37.7722 29.5L28.8802 6.316H36.9442L41.8042 20.428L46.7002 6.316H54.8002L45.8722 29.5H37.7722Z"/>
</mask>
<path d="M1.44 29.5V6.316H8.856L14.112 17.008L19.296 6.316H26.712V29.5H18.972V19.636L16.092 25.54H12.06L9.18 19.636V29.5H1.44ZM37.7722 29.5L28.8802 6.316H36.9442L41.8042 20.428L46.7002 6.316H54.8002L45.8722 29.5H37.7722Z" fill="#FFF00B"/>
<path d="M1.44 29.5H-0.56V31.5H1.44V29.5ZM1.44 6.316V4.316H-0.56V6.316H1.44ZM8.856 6.316L10.6509 5.43368L10.1014 4.316H8.856V6.316ZM14.112 17.008L12.3171 17.8903L14.1244 21.5667L15.9116 17.8805L14.112 17.008ZM19.296 6.316V4.316H18.043L17.4964 5.44345L19.296 6.316ZM26.712 6.316H28.712V4.316H26.712V6.316ZM26.712 29.5V31.5H28.712V29.5H26.712ZM18.972 29.5H16.972V31.5H18.972V29.5ZM18.972 19.636H20.972L17.1745 18.7592L18.972 19.636ZM16.092 25.54V27.54H17.3417L17.8895 26.4168L16.092 25.54ZM12.06 25.54L10.2625 26.4168L10.8103 27.54H12.06V25.54ZM9.18 19.636L10.9775 18.7592L7.18 19.636H9.18ZM9.18 29.5V31.5H11.18V29.5H9.18ZM3.44 29.5V6.316H-0.56V29.5H3.44ZM1.44 8.316H8.856V4.316H1.44V8.316ZM7.06114 7.19832L12.3171 17.8903L15.9069 16.1257L10.6509 5.43368L7.06114 7.19832ZM15.9116 17.8805L21.0956 7.18855L17.4964 5.44345L12.3124 16.1355L15.9116 17.8805ZM19.296 8.316H26.712V4.316H19.296V8.316ZM24.712 6.316V29.5H28.712V6.316H24.712ZM26.712 27.5H18.972V31.5H26.712V27.5ZM20.972 29.5V19.636H16.972V29.5H20.972ZM17.1745 18.7592L14.2945 24.6632L17.8895 26.4168L20.7695 20.5128L17.1745 18.7592ZM16.092 23.54H12.06V27.54H16.092V23.54ZM13.8575 24.6632L10.9775 18.7592L7.38246 20.5128L10.2625 26.4168L13.8575 24.6632ZM7.18 19.636V29.5H11.18V19.636H7.18ZM9.18 27.5H1.44V31.5H9.18V27.5ZM37.7722 29.5L35.9048 30.2162L36.3972 31.5H37.7722V29.5ZM28.8802 6.316V4.316H25.971L27.0128 7.03221L28.8802 6.316ZM36.9442 6.316L38.8352 5.66476L38.3707 4.316H36.9442V6.316ZM41.8042 20.428L39.9132 21.0792L41.7972 26.5499L43.6937 21.0835L41.8042 20.428ZM46.7002 6.316V4.316H45.2771L44.8106 5.66045L46.7002 6.316ZM54.8002 6.316L56.6665 7.03473L57.7135 4.316H54.8002V6.316ZM45.8722 29.5V31.5H47.2451L47.7385 30.2187L45.8722 29.5ZM39.6395 28.7838L30.7475 5.59979L27.0128 7.03221L35.9048 30.2162L39.6395 28.7838ZM28.8802 8.316H36.9442V4.316H28.8802V8.316ZM35.0532 6.96724L39.9132 21.0792L43.6952 19.7768L38.8352 5.66476L35.0532 6.96724ZM43.6937 21.0835L48.5897 6.97154L44.8106 5.66045L39.9146 19.7725L43.6937 21.0835ZM46.7002 8.316H54.8002V4.316H46.7002V8.316ZM52.9338 5.59726L44.0058 28.7813L47.7385 30.2187L56.6665 7.03473L52.9338 5.59726ZM45.8722 27.5H37.7722V31.5H45.8722V27.5Z" fill="#0063EE" mask="url(#path-1-outside-1_12_126)"/>
<path d="M66.0019 30.5V15.044H74.4979C76.0659 15.044 77.2579 15.412 78.0739 16.148C78.8899 16.884 79.2979 17.94 79.2979 19.316C79.2979 20.116 79.1459 20.788 78.8419 21.332C78.5539 21.876 78.1699 22.308 77.6899 22.628C78.3459 22.884 78.8659 23.26 79.2499 23.756C79.6499 24.236 79.8499 24.956 79.8499 25.916C79.8499 27.372 79.4019 28.5 78.5059 29.3C77.6099 30.1 76.3379 30.5 74.6899 30.5H66.0019ZM70.3459 21.212H73.2739C74.3779 21.212 74.9299 20.716 74.9299 19.724C74.9299 19.228 74.7939 18.852 74.5219 18.596C74.2659 18.34 73.8099 18.212 73.1539 18.212H70.3459V21.212ZM70.3459 27.356H73.4659C74.0739 27.356 74.5219 27.228 74.8099 26.972C75.0979 26.716 75.2419 26.292 75.2419 25.7C75.2419 25.204 75.0979 24.828 74.8099 24.572C74.5219 24.316 74.0419 24.188 73.3699 24.188H70.3459V27.356ZM87.7089 30.74C85.4369 30.74 83.7569 30.236 82.6689 29.228C81.5969 28.22 81.0609 26.748 81.0609 24.812C81.0609 22.892 81.6049 21.428 82.6929 20.42C83.7809 19.396 85.4529 18.884 87.7089 18.884C89.9809 18.884 91.6609 19.396 92.7489 20.42C93.8529 21.428 94.4049 22.892 94.4049 24.812C94.4049 26.748 93.8609 28.22 92.7729 29.228C91.6849 30.236 89.9969 30.74 87.7089 30.74ZM87.7089 27.452C88.4449 27.452 88.9729 27.244 89.2929 26.828C89.6289 26.412 89.7969 25.74 89.7969 24.812C89.7969 23.9 89.6289 23.236 89.2929 22.82C88.9729 22.388 88.4449 22.172 87.7089 22.172C86.9889 22.172 86.4689 22.388 86.1489 22.82C85.8289 23.236 85.6689 23.9 85.6689 24.812C85.6689 25.74 85.8289 26.412 86.1489 26.828C86.4689 27.244 86.9889 27.452 87.7089 27.452ZM96.0956 30.5V19.124H100.272L100.392 20.036C100.888 19.7 101.44 19.428 102.048 19.22C102.672 18.996 103.352 18.884 104.088 18.884C104.824 18.884 105.4 18.988 105.816 19.196C106.232 19.404 106.568 19.708 106.824 20.108C107.336 19.74 107.912 19.444 108.552 19.22C109.208 18.996 109.976 18.884 110.856 18.884C112.184 18.884 113.16 19.236 113.784 19.94C114.408 20.628 114.72 21.684 114.72 23.108V30.5H110.28V23.636C110.28 23.124 110.176 22.764 109.968 22.556C109.76 22.332 109.416 22.22 108.936 22.22C108.312 22.22 107.8 22.444 107.4 22.892C107.432 23.1 107.448 23.3 107.448 23.492C107.448 23.668 107.448 23.868 107.448 24.092V30.5H103.272V23.564C103.272 23.1 103.192 22.764 103.032 22.556C102.872 22.332 102.568 22.22 102.12 22.22C101.816 22.22 101.52 22.3 101.232 22.46C100.944 22.62 100.688 22.812 100.464 23.036V30.5H96.0956ZM124.352 30.74C123.616 30.74 122.968 30.644 122.408 30.452C121.864 30.244 121.36 29.964 120.896 29.612L120.68 30.5H116.768V14.324H121.28V19.532C121.664 19.324 122.112 19.164 122.624 19.052C123.152 18.94 123.68 18.884 124.208 18.884C125.904 18.884 127.232 19.34 128.192 20.252C129.168 21.148 129.656 22.636 129.656 24.716C129.656 26.748 129.176 28.26 128.216 29.252C127.256 30.244 125.968 30.74 124.352 30.74ZM123.056 27.476C123.76 27.476 124.264 27.268 124.568 26.852C124.888 26.42 125.048 25.724 125.048 24.764C125.048 23.788 124.88 23.108 124.544 22.724C124.224 22.34 123.728 22.148 123.056 22.148C122.32 22.148 121.728 22.348 121.28 22.748V26.78C121.776 27.244 122.368 27.476 123.056 27.476ZM134.898 30.74C134.178 30.74 133.506 30.612 132.882 30.356C132.274 30.1 131.786 29.7 131.418 29.156C131.05 28.612 130.866 27.924 130.866 27.092C130.866 25.892 131.266 24.964 132.066 24.308C132.866 23.636 134.074 23.3 135.69 23.3H138.642V23.084C138.642 22.636 138.458 22.308 138.09 22.1C137.722 21.892 137.074 21.788 136.146 21.788C134.834 21.788 133.538 21.988 132.258 22.388V19.676C132.834 19.452 133.554 19.268 134.418 19.124C135.282 18.964 136.162 18.884 137.058 18.884C138.866 18.884 140.298 19.252 141.354 19.988C142.41 20.724 142.938 21.892 142.938 23.492V30.5H139.002L138.786 29.588C138.386 29.94 137.866 30.22 137.226 30.428C136.602 30.636 135.826 30.74 134.898 30.74ZM136.434 28.1C136.946 28.1 137.378 28.012 137.73 27.836C138.098 27.66 138.402 27.444 138.642 27.188V25.772H136.458C135.466 25.772 134.97 26.164 134.97 26.948C134.97 27.716 135.458 28.1 136.434 28.1ZM149.426 30.74C148.45 30.74 147.53 30.668 146.666 30.524C145.818 30.396 145.146 30.228 144.65 30.02V26.78C145.21 27.036 145.874 27.236 146.642 27.38C147.426 27.524 148.09 27.596 148.634 27.596C149.21 27.596 149.642 27.58 149.93 27.548C150.234 27.516 150.386 27.38 150.386 27.14C150.386 26.868 150.122 26.66 149.594 26.516C149.066 26.372 148.402 26.164 147.602 25.892C146.562 25.524 145.786 25.092 145.274 24.596C144.762 24.1 144.506 23.38 144.506 22.436C144.506 21.3 144.954 20.428 145.85 19.82C146.746 19.196 148.154 18.884 150.074 18.884C150.81 18.884 151.57 18.94 152.354 19.052C153.138 19.164 153.754 19.292 154.202 19.436V22.604C153.722 22.396 153.194 22.244 152.618 22.148C152.058 22.052 151.546 22.004 151.082 22.004C150.57 22.004 150.114 22.028 149.714 22.076C149.314 22.124 149.114 22.26 149.114 22.484C149.114 22.74 149.338 22.924 149.786 23.036C150.25 23.148 150.866 23.324 151.634 23.564C152.498 23.82 153.17 24.1 153.65 24.404C154.146 24.708 154.49 25.076 154.682 25.508C154.89 25.94 154.994 26.476 154.994 27.116C154.994 28.268 154.522 29.164 153.578 29.804C152.65 30.428 151.266 30.74 149.426 30.74ZM167.867 30.74C166.539 30.74 165.363 30.524 164.339 30.092C163.331 29.644 162.539 28.98 161.963 28.1C161.403 27.22 161.123 26.132 161.123 24.836C161.123 23.028 161.635 21.588 162.659 20.516C163.683 19.428 165.211 18.884 167.243 18.884C169.099 18.884 170.547 19.356 171.587 20.3C172.643 21.244 173.171 22.532 173.171 24.164V26.156H165.275C165.483 26.764 165.891 27.196 166.499 27.452C167.107 27.708 167.931 27.836 168.971 27.836C169.627 27.836 170.283 27.78 170.939 27.668C171.611 27.54 172.147 27.396 172.547 27.236V29.948C171.427 30.476 169.867 30.74 167.867 30.74ZM165.275 23.708H169.283V23.3C169.283 22.852 169.139 22.484 168.851 22.196C168.579 21.908 168.091 21.764 167.387 21.764C166.603 21.764 166.051 21.932 165.731 22.268C165.427 22.588 165.275 23.068 165.275 23.708ZM179.768 30.5V15.044H184.16L188 22.892L191.816 15.044H196.184V30.5H191.672V22.772L189.2 27.86H186.776L184.28 22.772V30.5H179.768ZM204.521 30.74C202.249 30.74 200.569 30.236 199.481 29.228C198.409 28.22 197.873 26.748 197.873 24.812C197.873 22.892 198.417 21.428 199.505 20.42C200.593 19.396 202.265 18.884 204.521 18.884C206.793 18.884 208.473 19.396 209.561 20.42C210.665 21.428 211.217 22.892 211.217 24.812C211.217 26.748 210.673 28.22 209.585 29.228C208.497 30.236 206.809 30.74 204.521 30.74ZM204.521 27.452C205.257 27.452 205.785 27.244 206.105 26.828C206.441 26.412 206.609 25.74 206.609 24.812C206.609 23.9 206.441 23.236 206.105 22.82C205.785 22.388 205.257 22.172 204.521 22.172C203.801 22.172 203.281 22.388 202.961 22.82C202.641 23.236 202.481 23.9 202.481 24.812C202.481 25.74 202.641 26.412 202.961 26.828C203.281 27.244 203.801 27.452 204.521 27.452ZM217.78 30.74C216.26 30.74 215.156 30.356 214.468 29.588C213.78 28.82 213.436 27.78 213.436 26.468V22.46H211.948V19.124H213.436V16.796L217.948 15.716V19.124H220.564L220.396 22.46H217.948V26.132C217.948 26.612 218.068 26.956 218.308 27.164C218.548 27.356 218.916 27.452 219.412 27.452C219.876 27.452 220.348 27.372 220.828 27.212V30.212C219.98 30.564 218.964 30.74 217.78 30.74ZM228.193 30.74C225.921 30.74 224.241 30.236 223.153 29.228C222.081 28.22 221.545 26.748 221.545 24.812C221.545 22.892 222.089 21.428 223.177 20.42C224.265 19.396 225.937 18.884 228.193 18.884C230.465 18.884 232.145 19.396 233.233 20.42C234.337 21.428 234.889 22.892 234.889 24.812C234.889 26.748 234.345 28.22 233.257 29.228C232.169 30.236 230.481 30.74 228.193 30.74ZM228.193 27.452C228.929 27.452 229.457 27.244 229.777 26.828C230.113 26.412 230.281 25.74 230.281 24.812C230.281 23.9 230.113 23.236 229.777 22.82C229.457 22.388 228.929 22.172 228.193 22.172C227.473 22.172 226.953 22.388 226.633 22.82C226.313 23.236 226.153 23.9 226.153 24.812C226.153 25.74 226.313 26.412 226.633 26.828C226.953 27.244 227.473 27.452 228.193 27.452ZM236.58 30.5V19.124H240.924L241.044 20.036C241.508 19.764 242.1 19.516 242.82 19.292C243.54 19.068 244.268 18.932 245.004 18.884V22.244C244.588 22.276 244.132 22.332 243.636 22.412C243.156 22.492 242.684 22.596 242.22 22.724C241.772 22.836 241.396 22.964 241.092 23.108V30.5H236.58ZM252.078 30.74C250.75 30.74 249.574 30.524 248.55 30.092C247.542 29.644 246.75 28.98 246.174 28.1C245.614 27.22 245.334 26.132 245.334 24.836C245.334 23.028 245.846 21.588 246.87 20.516C247.894 19.428 249.422 18.884 251.454 18.884C253.31 18.884 254.758 19.356 255.798 20.3C256.854 21.244 257.382 22.532 257.382 24.164V26.156H249.486C249.694 26.764 250.102 27.196 250.71 27.452C251.318 27.708 252.142 27.836 253.182 27.836C253.838 27.836 254.494 27.78 255.15 27.668C255.822 27.54 256.358 27.396 256.758 27.236V29.948C255.638 30.476 254.078 30.74 252.078 30.74ZM249.486 23.708H253.494V23.3C253.494 22.852 253.35 22.484 253.062 22.196C252.79 21.908 252.302 21.764 251.598 21.764C250.814 21.764 250.262 21.932 249.942 22.268C249.638 22.588 249.486 23.068 249.486 23.708ZM263.379 30.74C262.403 30.74 261.483 30.668 260.619 30.524C259.771 30.396 259.099 30.228 258.603 30.02V26.78C259.163 27.036 259.827 27.236 260.595 27.38C261.379 27.524 262.043 27.596 262.587 27.596C263.163 27.596 263.595 27.58 263.883 27.548C264.187 27.516 264.339 27.38 264.339 27.14C264.339 26.868 264.075 26.66 263.547 26.516C263.019 26.372 262.355 26.164 261.555 25.892C260.515 25.524 259.739 25.092 259.227 24.596C258.715 24.1 258.459 23.38 258.459 22.436C258.459 21.3 258.907 20.428 259.803 19.82C260.699 19.196 262.107 18.884 264.027 18.884C264.763 18.884 265.523 18.94 266.307 19.052C267.091 19.164 267.707 19.292 268.155 19.436V22.604C267.675 22.396 267.147 22.244 266.571 22.148C266.011 22.052 265.499 22.004 265.035 22.004C264.523 22.004 264.067 22.028 263.667 22.076C263.267 22.124 263.067 22.26 263.067 22.484C263.067 22.74 263.291 22.924 263.739 23.036C264.203 23.148 264.819 23.324 265.587 23.564C266.451 23.82 267.123 24.1 267.603 24.404C268.099 24.708 268.443 25.076 268.635 25.508C268.843 25.94 268.947 26.476 268.947 27.116C268.947 28.268 268.475 29.164 267.531 29.804C266.603 30.428 265.219 30.74 263.379 30.74Z" fill="#0063EE"/>
</svg>
