<svg width="54" height="24" viewBox="0 0 54 24" fill="none" xmlns="http://www.w3.org/2000/svg">
<mask id="path-1-outside-1_12_125" maskUnits="userSpaceOnUse" x="-2" y="-2.5" width="59" height="28" fill="black">
<rect fill="white" x="-2" y="-2.5" width="59" height="28"/>
<path d="M0.44 23.5V0.315998H7.856L13.112 11.008L18.296 0.315998H25.712V23.5H17.972V13.636L15.092 19.54H11.06L8.18 13.636V23.5H0.44ZM36.7722 23.5L27.8802 0.315998H35.9442L40.8042 14.428L45.7002 0.315998H53.8002L44.8722 23.5H36.7722Z"/>
</mask>
<path d="M0.44 23.5V0.315998H7.856L13.112 11.008L18.296 0.315998H25.712V23.5H17.972V13.636L15.092 19.54H11.06L8.18 13.636V23.5H0.44ZM36.7722 23.5L27.8802 0.315998H35.9442L40.8042 14.428L45.7002 0.315998H53.8002L44.8722 23.5H36.7722Z" fill="#FFF00B"/>
<path d="M0.44 23.5H-1.56V25.5H0.44V23.5ZM0.44 0.315998V-1.684H-1.56V0.315998H0.44ZM7.856 0.315998L9.65086 -0.566322L9.10143 -1.684H7.856V0.315998ZM13.112 11.008L11.3171 11.8903L13.1244 15.5667L14.9116 11.8805L13.112 11.008ZM18.296 0.315998V-1.684H17.043L16.4964 -0.556549L18.296 0.315998ZM25.712 0.315998H27.712V-1.684H25.712V0.315998ZM25.712 23.5V25.5H27.712V23.5H25.712ZM17.972 23.5H15.972V25.5H17.972V23.5ZM17.972 13.636H19.972L16.1745 12.7592L17.972 13.636ZM15.092 19.54V21.54H16.3417L16.8895 20.4168L15.092 19.54ZM11.06 19.54L9.26246 20.4168L9.81034 21.54H11.06V19.54ZM8.18 13.636L9.97754 12.7592L6.18 13.636H8.18ZM8.18 23.5V25.5H10.18V23.5H8.18ZM2.44 23.5V0.315998H-1.56V23.5H2.44ZM0.44 2.316H7.856V-1.684H0.44V2.316ZM6.06114 1.19832L11.3171 11.8903L14.9069 10.1257L9.65086 -0.566322L6.06114 1.19832ZM14.9116 11.8805L20.0956 1.18854L16.4964 -0.556549L11.3124 10.1355L14.9116 11.8805ZM18.296 2.316H25.712V-1.684H18.296V2.316ZM23.712 0.315998V23.5H27.712V0.315998H23.712ZM25.712 21.5H17.972V25.5H25.712V21.5ZM19.972 23.5V13.636H15.972V23.5H19.972ZM16.1745 12.7592L13.2945 18.6632L16.8895 20.4168L19.7695 14.5128L16.1745 12.7592ZM15.092 17.54H11.06V21.54H15.092V17.54ZM12.8575 18.6632L9.97754 12.7592L6.38246 14.5128L9.26246 20.4168L12.8575 18.6632ZM6.18 13.636V23.5H10.18V13.636H6.18ZM8.18 21.5H0.44V25.5H8.18V21.5ZM36.7722 23.5L34.9048 24.2162L35.3972 25.5H36.7722V23.5ZM27.8802 0.315998V-1.684H24.971L26.0128 1.03221L27.8802 0.315998ZM35.9442 0.315998L37.8352 -0.33524L37.3707 -1.684H35.9442V0.315998ZM40.8042 14.428L38.9132 15.0792L40.7972 20.5499L42.6937 15.0835L40.8042 14.428ZM45.7002 0.315998V-1.684H44.2771L43.8106 -0.339547L45.7002 0.315998ZM53.8002 0.315998L55.6665 1.03473L56.7135 -1.684H53.8002V0.315998ZM44.8722 23.5V25.5H46.2451L46.7385 24.2187L44.8722 23.5ZM38.6395 22.7838L29.7475 -0.400211L26.0128 1.03221L34.9048 24.2162L38.6395 22.7838ZM27.8802 2.316H35.9442V-1.684H27.8802V2.316ZM34.0532 0.967236L38.9132 15.0792L42.6952 13.7768L37.8352 -0.33524L34.0532 0.967236ZM42.6937 15.0835L47.5897 0.971544L43.8106 -0.339547L38.9146 13.7725L42.6937 15.0835ZM45.7002 2.316H53.8002V-1.684H45.7002V2.316ZM51.9338 -0.402737L43.0058 22.7813L46.7385 24.2187L55.6665 1.03473L51.9338 -0.402737ZM44.8722 21.5H36.7722V25.5H44.8722V21.5Z" fill="#0063EE" mask="url(#path-1-outside-1_12_125)"/>
</svg>
