<svg width="329" height="85" viewBox="0 0 329 85" fill="none" xmlns="http://www.w3.org/2000/svg">
<path d="M316.6 19.9C315.5 14.2 315.4 15 309 14.1C278.6 11 247.5 8.90005 216.1 7.80005C199.9 7.20005 183.7 6.90005 167.4 6.90005C140.6 6.80005 113.8 7.50005 87.3001 8.80005C83.9001 9.00005 80.5001 9.10005 77.0001 9.30005C69.6001 9.60005 62.3001 10.1 55.0001 10.6H54.8001H54.6001C50.7001 10.9 46.8001 11.1 43.0001 11.4C40.8001 11.6 38.6001 11.8 36.4001 12C32.9001 12.3 29.5001 12.6 26.1001 13C23.7001 13.2 21.7001 13.4 19.3001 13.6C12.9001 14.5 12.8001 13.8 11.7001 19.4C10.4001 27.1 9.7001 34.6001 9.6001 41.4001C9.6001 41.5 9.6001 41.6001 9.6001 41.7001V41.9001C9.6001 41.9001 9.6001 42 9.6001 42.1C9.6001 49.1 10.3001 57 11.7001 64.9001C12.7001 70.6001 12.8001 69.9001 19.2001 70.8001C66.4001 75.7001 115.3 78.1 164.3 78.1C213.2 78.1 262.2 75.7001 309.4 70.8001C315.7 69.9001 315.8 70.6001 316.8 64.9001C317.4 61.5 317.8 58.2001 318.1 54.9001C318.4 52.8001 318.5 50.8 318.6 48.7001C318.7 46.7001 318.8 44.7001 318.8 42.7001C318.8 42.6001 318.8 42.6 318.8 42.5C318.8 42.5 318.8 42.4 318.8 42.3C318.8 35.5 318.1 27.7001 316.6 19.9Z" fill="white"/>
<path d="M80.3002 56.5C80.1002 56.5 80.0002 56.5 79.9002 56.5C78.6002 56.6 77.6002 57.2 76.8002 58.5C76.0002 59.8 75.6002 61.5 75.7002 63.5C75.8002 64.7 76.1002 65.7 76.8002 66.4C77.4002 67.1 78.3002 67.5 79.4002 67.5C79.6002 67.5 79.7002 67.4 79.9002 67.4C81.1002 67.3 82.1002 66.6 82.9002 65.4C83.8002 64.1 84.2002 62.4 84.1002 60.4C84.0002 59.1 83.6002 58.2 83.0002 57.5C82.3002 56.8 81.4002 56.5 80.3002 56.5Z" fill="#ED1C2E"/>
<path d="M179.9 57.4001C179.3 56.8001 178.4 56.4001 177.2 56.4001C177.1 56.4001 177 56.4001 176.8 56.4001C175.6 56.5001 174.5 57.1001 173.8 58.4001C172.9 59.7001 172.6 61.4001 172.7 63.4001C172.8 64.6001 173.1 65.6001 173.8 66.3001C174.4 67.0001 175.3 67.4001 176.4 67.4001C176.6 67.4001 176.7 67.3001 176.8 67.3001C178 67.2001 179 66.5001 179.8 65.3001C180.6 64.0001 181.1 62.3001 180.9 60.3001C180.9 59.0001 180.6 58.1001 179.9 57.4001Z" fill="#ED1C2E"/>
<path d="M228.1 25.5H223L221 38.7H226.1C226.7 38.7 227.3 38.6 227.9 38.6C229.7 38.4 231.1 38 232.1 37.2C233.4 36.1 234.2 34.5 234.6 32.1C234.9 29.8 234.6 28.1 233.6 27.1C232.6 26 230.8 25.5 228.1 25.5Z" fill="#ED1C2E"/>
<path d="M233.5 56.8C233.2 56.6 232.7 56.5 232 56.5H229.4L228.9 59.8H230.8C232 59.8 232.9 59.6 233.4 59.3C233.9 59 234.1 58.5 234 57.8C233.9 57.4 233.8 57 233.5 56.8Z" fill="#ED1C2E"/>
<path d="M155.2 56.8C154.9 56.6 154.4 56.5 153.7 56.5H151.2L150.7 59.8H152.6C153.8 59.8 154.7 59.6 155.2 59.3C155.7 59 155.9 58.5 155.8 57.8C155.7 57.4 155.5 57 155.2 56.8Z" fill="#ED1C2E"/>
<path d="M131 57.4001C130.4 56.8001 129.5 56.4001 128.3 56.4001C128.2 56.4001 128.1 56.4001 127.9 56.4001C126.7 56.5001 125.6 57.1001 124.9 58.4001C124 59.7001 123.7 61.4001 123.8 63.4001C123.9 64.6001 124.2 65.6001 124.9 66.3001C125.5 67.0001 126.4 67.4001 127.5 67.4001C127.7 67.4001 127.8 67.3001 127.9 67.3001C129.2 67.2001 130.1 66.5001 130.9 65.3001C131.8 64.0001 132.2 62.3001 132 60.3001C132 59.0001 131.7 58.1001 131 57.4001Z" fill="#ED1C2E"/>
<path d="M154.6 63.4001C154.2 63.1001 153.7 62.9001 153 62.9001H150.2L149.6 67.0001H151.5C151.8 67.0001 152.1 66.9001 152.4 66.9001C153.4 66.8001 154 66.7001 154.5 66.4001C155 66.0001 155.3 65.4001 155.2 64.6001C155.1 64.1001 154.9 63.6001 154.6 63.4001Z" fill="#ED1C2E"/>
<path d="M232.8 63.4001C232.4 63.1001 231.9 62.9001 231.3 62.9001H228.4L227.8 67.0001H229.7C230.1 67.0001 230.3 66.9001 230.6 66.9001C231.6 66.8001 232.2 66.7001 232.7 66.4001C233.2 66.0001 233.5 65.4001 233.4 64.6001C233.4 64.1001 233.2 63.6001 232.8 63.4001Z" fill="#ED1C2E"/>
<path d="M255.6 58.8L253.7 63.9001H255.6H257.6L256.2 57.3L255.6 58.8Z" fill="#ED1C2E"/>
<path d="M302.5 26.5C301.9 26.2 300.7 26 298.9 26H293.2L292.5 30.8H298.5C300 30.8 301.2 30.6 301.8 30.2C302.5 29.8 302.9 29.2 303.1 28.3C303.2 27.4 303 26.9 302.5 26.5Z" fill="#ED1C2E"/>
<path d="M324.6 17.1001C323.5 10.7001 323.4 11.6001 316.6 10.6001C284.6 7.1001 251.9 4.8001 218.9 3.5001C201.9 2.9001 184.8 2.5001 167.7 2.5001C139.5 2.4001 111.3 3.1001 83.4001 4.6001C79.7001 4.8001 76.1001 5.0001 72.5001 5.2001C64.7001 5.5001 57.0001 6.1001 49.3001 6.6001H49.1001H48.9001C44.8001 6.9001 40.7001 7.2001 36.6001 7.5001C34.3001 7.7001 31.9001 7.9001 29.6001 8.2001C26.0001 8.5001 22.5001 8.9001 18.9001 9.3001C16.4001 9.6001 14.3001 9.7001 11.8001 10.0001C5.1001 11.0001 5.0001 10.2001 3.8001 16.5001C2.4001 25.2001 1.7001 33.5001 1.6001 41.3001C1.6001 41.4001 1.6001 41.5001 1.6001 41.7001V41.9001C1.6001 42.0001 1.6001 42.0001 1.6001 42.1001C1.6001 50.0001 2.3001 58.9001 3.8001 67.8001C4.9001 74.2001 5.0001 73.4001 11.7001 74.4001C61.4001 79.9001 112.9 82.6001 164.4 82.6001C215.9 82.6001 267.4 79.9001 317.1 74.4001C323.7 73.4001 323.8 74.2001 324.9 67.8001C325.5 64.0001 326 60.3001 326.3 56.6001C326.6 54.3001 326.7 52.0001 326.9 49.6001C327 47.3001 327.1 45.1001 327.1 42.9001C327.1 42.8001 327.1 42.7001 327.1 42.7001C327.1 42.6001 327.1 42.6001 327.1 42.5001C326.9 34.6001 326.1 25.9001 324.6 17.1001ZM251.6 19.1001H279.8L278.8 25.7001H260.9L260.4 28.9001H274.8L273.8 35.5001H259.4L258.9 39.0001H276.9L275.9 45.9001H247.7L251.6 19.1001ZM199.3 18.8001H209.6L205.5 45.7001H195.2L199.3 18.8001ZM27.6001 46.6001C22.7001 46.6001 19.0001 45.8001 16.6001 44.3001C14.2001 42.8001 13.2001 40.6001 13.6001 37.7001H26.0001C26.0001 38.4001 26.4001 39.0001 27.1001 39.4001C27.8001 39.8001 28.9001 40.0001 30.2001 40.0001C31.6001 40.0001 32.6001 39.8001 33.4001 39.5001C34.1001 39.2001 34.6001 38.7001 34.7001 38.0001C34.8001 37.5001 34.5001 37.0001 34.0001 36.6001C33.5001 36.3001 32.6001 36.0001 31.3001 35.9001L23.8001 34.9001C20.7001 34.5001 18.4001 33.7001 17.0001 32.3001C15.6001 31.0001 15.1001 29.2001 15.5001 26.9001C15.9001 23.9001 17.5001 21.7001 20.1001 20.3001C22.7001 18.9001 26.7001 18.2001 32.0001 18.2001C37.5001 18.2001 41.5001 18.9001 44.0001 20.3001C46.5001 21.7001 47.6001 23.9001 47.4001 26.8001H35.5001C35.4001 25.9001 35.1001 25.3001 34.3001 24.9001C33.5001 24.4001 32.3001 24.2001 30.7001 24.2001C29.5001 24.2001 28.6001 24.4001 27.9001 24.7001C27.2001 25.0001 26.8001 25.4001 26.7001 26.0001C26.6001 26.5001 26.8001 26.9001 27.3001 27.2001C27.8001 27.5001 28.8001 27.7001 30.3001 27.9001L39.4001 29.2001C42.3001 29.6001 44.3001 30.5001 45.6001 31.8001C46.8001 33.1001 47.3001 34.9001 47.0001 37.1001C46.5001 40.4001 44.7001 42.7001 41.6001 44.3001C38.5001 45.8001 33.8001 46.6001 27.6001 46.6001ZM60.3001 70.3001H56.4001L58.4001 57.5001L53.1001 70.3001H49.2001L47.9001 57.5001L46.0001 70.3001H42.0001L44.6001 53.3001H50.4001L51.7001 65.4001L57.0001 53.3001H62.9001L60.3001 70.3001ZM54.3001 42.9001C51.6001 40.6001 50.7001 37.0001 51.4001 32.3001C52.1001 27.6001 54.2001 24.1001 57.5001 21.7001C60.8001 19.3001 65.5001 18.1001 71.4001 18.1001C76.9001 18.1001 81.0001 19.1001 83.6001 21.2001C86.3001 23.3001 87.5001 26.2001 87.1001 30.1001H75.3001C75.4001 28.5001 75.0001 27.2001 74.1001 26.3001C73.3001 25.5001 72.0001 25.0001 70.3001 25.0001C68.1001 25.0001 66.3001 25.6001 65.0001 26.9001C63.7001 28.2001 62.8001 30.0001 62.4001 32.3001C62.0001 34.6001 62.3001 36.4001 63.3001 37.7001C64.3001 39.0001 65.9001 39.6001 68.1001 39.6001C69.7001 39.6001 71.0001 39.2001 72.1001 38.5001C73.2001 37.8001 74.0001 36.6001 74.5001 35.2001H86.3001C85.2001 38.9001 83.0001 41.7001 79.8001 43.6001C76.6001 45.5001 72.3001 46.5001 67.0001 46.5001C61.1001 46.5001 56.9001 45.3001 54.3001 42.9001ZM86.2001 67.9001C84.6001 69.8001 82.5001 70.7001 79.9001 70.8001C79.8001 70.8001 79.7001 70.8001 79.6001 70.8001C77.2001 70.8001 75.3001 70.1001 73.8001 68.7001C72.4001 67.3001 71.5001 65.4001 71.4001 63.0001C71.2001 60.1001 71.9001 57.6001 73.6001 55.7001C75.2001 53.9001 77.3001 52.9001 79.9001 52.8001C80.0001 52.8001 80.1001 52.8001 80.2001 52.8001C82.6001 52.8001 84.6001 53.5001 86.0001 54.9001C87.4001 56.3001 88.2001 58.1001 88.4001 60.5001C88.5001 63.6001 87.8001 66.0001 86.2001 67.9001ZM110.5 56.8001H105.9L103.8 70.3001H99.4001L101.5 56.8001H96.8001L97.3001 53.3001H111L110.5 56.8001ZM101.3 34.9001L99.7001 45.8001H89.4001L93.4001 18.9001H103.7L102.3 28.3001H114L115.4 18.9001H125.7L121.6 45.8001H111.3L112.9 34.9001H101.3ZM134.2 67.9001C132.6 69.8001 130.5 70.7001 127.9 70.8001C127.8 70.8001 127.7 70.8001 127.6 70.8001C125.2 70.8001 123.2 70.1001 121.8 68.7001C120.3 67.3001 119.5 65.4001 119.4 63.0001C119.2 60.1001 119.9 57.6001 121.6 55.7001C123.2 53.9001 125.3 52.9001 127.9 52.8001C128 52.8001 128.1 52.8001 128.2 52.8001C130.6 52.8001 132.5 53.5001 134 54.9001C135.4 56.3001 136.2 58.1001 136.4 60.5001C136.6 63.6001 135.9 66.0001 134.2 67.9001ZM158.7 63.0001C159.1 63.6001 159.3 64.3001 159.4 65.1001C159.5 65.9001 159.3 66.6001 159 67.3001C158.7 68.0001 158.3 68.6001 157.7 69.0001C157.2 69.5001 156.5 69.9001 155.6 70.0001C154.8 70.2001 153.7 70.3001 152.3 70.3001C152.2 70.3001 152 70.3001 151.9 70.3001H144.8L147.4 53.3001H154.2C156 53.3001 157.3 53.7001 158.3 54.4001C159.3 55.1001 159.8 56.2001 159.8 57.6001C159.9 58.6001 159.6 59.5001 159.2 60.2001C158.7 60.9001 158 61.4001 157 61.7001C157.8 62.0001 158.4 62.4001 158.7 63.0001ZM158.1 45.8001H146.6L137.9 30.0001L135.5 45.7001H125.8L129.9 18.8001H142L149.9 34.4001L152.2 18.8001H162.1L158.1 45.8001ZM183.1 67.9001C181.5 69.8001 179.4 70.7001 176.8 70.8001C176.7 70.8001 176.6 70.8001 176.5 70.8001C174.1 70.8001 172.1 70.1001 170.7 68.7001C169.2 67.3001 168.4 65.4001 168.3 63.0001C168.1 60.1001 168.9 57.6001 170.5 55.7001C172.1 53.9001 174.2 52.9001 176.8 52.8001C176.9 52.8001 177 52.8001 177.1 52.8001C179.5 52.8001 181.4 53.5001 182.9 54.9001C184.3 56.3001 185.1 58.1001 185.3 60.5001C185.5 63.6001 184.8 66.0001 183.1 67.9001ZM190.9 45.8001H162.3L166.3 18.9001H194.9L193.9 25.5001H175.5L175 28.7001H189.4L188.4 35.3001H174L173.5 38.9001H192L190.9 45.8001ZM212.1 70.3001H208.2L210.2 57.5001L204.9 70.3001H201L199.7 57.5001L197.7 70.3001H193.8L196.4 53.3001H202.3L203.6 65.4001L208.9 53.3001H214.8L212.1 70.3001ZM237 63.0001C237.4 63.6001 237.6 64.3001 237.7 65.1001C237.8 65.9001 237.6 66.6001 237.3 67.3001C237 68.0001 236.6 68.6001 236 69.0001C235.5 69.5001 234.8 69.9001 233.9 70.0001C233.1 70.2001 232 70.3001 230.6 70.3001C230.5 70.3001 230.3 70.3001 230.2 70.3001H223.1L225.7 53.3001H232.5C234.3 53.3001 235.6 53.7001 236.6 54.4001C237.6 55.1001 238.1 56.2001 238.1 57.6001C238.2 58.6001 237.9 59.5001 237.5 60.2001C237 60.9001 236.3 61.4001 235.3 61.7001C236.1 62.0001 236.6 62.4001 237 63.0001ZM245.8 29.9001C245.8 30.7001 245.7 31.5001 245.6 32.3001C245 36.7001 243 40.1001 239.8 42.3001C236.8 44.4001 232.9 45.5001 227.9 45.6001C227.5 45.7001 227.1 45.7001 226.7 45.7001H209.7L213.8 18.7001H230.8C236.3 18.7001 240.3 19.9001 242.8 22.2001C244.8 24.0001 245.7 26.5001 245.8 29.5001V29.9001ZM258.9 70.3001L258.3 67.3001H252.3L251.2 70.3001H246.6L254.1 53.3001H255.6H258.8L263.2 70.3001H258.9ZM279.7 59.8001C280.4 60.1001 280.9 60.3001 281.2 60.5001C282.7 61.2001 283.8 61.9001 284.4 62.7001C285 63.4001 285.4 64.3001 285.5 65.5001C285.6 67.1001 285.1 68.5001 284 69.5001C282.8 70.5001 281.2 70.9001 279.2 70.9001C277 70.9001 275.3 70.4001 274 69.4001C272.7 68.4001 272 67.0001 271.8 65.0001H275.8C275.9 65.9001 276.2 66.5001 276.7 67.0001C277.2 67.4001 278 67.6001 279 67.6001C279.8 67.6001 280.5 67.4001 281 67.1001C281.5 66.8001 281.7 66.4001 281.7 65.8001C281.6 65.2001 280.7 64.4001 278.9 63.7001C278.3 63.4001 277.8 63.2001 277.4 63.0001C276 62.4001 275 61.6001 274.3 60.9001C273.7 60.1001 273.3 59.2001 273.2 58.1001C273.1 56.6001 273.6 55.3001 274.7 54.4001C275.8 53.5001 277.3 53.0001 279.2 53.0001C281.4 53.0001 283 53.5001 284.2 54.4001C285.4 55.4001 286.1 56.7001 286.3 58.5001H282.4L282.3 58.4001C282.3 57.7001 282 57.1001 281.6 56.7001C281.1 56.3001 280.4 56.1001 279.5 56.1001C278.8 56.1001 278.2 56.3001 277.8 56.6001C277.4 56.9001 277.2 57.3001 277.2 57.8001C277.1 58.3001 278 59.0001 279.7 59.8001ZM314.7 26.4001C314.5 28.0001 313.9 29.4001 312.9 30.6001C311.9 31.8001 310.8 32.7001 309.3 33.3001C310.4 33.8001 311.1 34.4001 311.5 35.1001C311.8 35.8001 311.9 37.2001 311.7 39.0001C311.7 39.2001 311.6 39.5001 311.6 39.8001C311.2 43.3001 311.4 45.2001 312.1 45.6001L312 46.0001H300.6C300.3 45.4001 300.3 44.4001 300.5 42.7001C300.7 41.8001 300.7 41.1001 300.7 40.5001C300.8 39.5001 300.5 38.8001 300.1 38.4001C299.6 38.0001 298.9 37.8001 297.7 37.8001C297.6 37.8001 297.5 37.8001 297.4 37.8001H291.3L290.1 46.0001H279.7L283.8 19.1001H304C306.3 19.1001 308.1 19.2001 309.5 19.4001C310.8 19.6001 311.8 20.0001 312.6 20.5001C313.5 21.1001 314.1 21.9001 314.5 22.9001C314.8 23.9001 314.9 25.0001 314.7 26.4001Z" fill="#ED1C2E"/>
</svg>
