<svg width="45" height="44" viewBox="0 0 45 44" fill="none" xmlns="http://www.w3.org/2000/svg">
<path d="M17 27.5C12.105 27.5 2.33331 29.9567 2.33331 34.8333V38.5H31.6666V34.8333C31.6666 29.9567 21.895 27.5 17 27.5Z" fill="#0063EE"/>
<path d="M41.0167 12.54C41.035 12.3383 41.0534 12.1367 41.0534 11.9167C41.0534 11.6967 41.035 11.495 40.9984 11.2933L42.355 10.23C42.4834 10.1383 42.5017 9.955 42.4284 9.82667L41.145 7.60833C41.0717 7.46167 40.8884 7.425 40.76 7.46167L39.1834 8.10333C38.8534 7.84667 38.4867 7.645 38.1017 7.48L37.8634 5.775C37.8267 5.61 37.6984 5.5 37.5334 5.5H34.9667C34.8017 5.5 34.6734 5.61 34.655 5.775L34.4167 7.48C34.0317 7.645 33.665 7.865 33.335 8.10333L31.74 7.46167C31.5934 7.40667 31.4284 7.46167 31.355 7.60833L30.0717 9.82667C29.9984 9.97333 30.0167 10.1383 30.145 10.23L31.5017 11.2933C31.465 11.495 31.4467 11.715 31.4467 11.9167C31.4467 12.1183 31.465 12.3383 31.5017 12.54L30.145 13.6033C30.0167 13.695 29.9984 13.8783 30.0717 14.0067L31.355 16.225C31.4284 16.3717 31.6117 16.4083 31.74 16.3717L33.335 15.73C33.665 15.9867 34.0317 16.1883 34.4167 16.3533L34.655 18.0583C34.6734 18.2233 34.8017 18.3333 34.9667 18.3333H37.5334C37.6984 18.3333 37.8267 18.2233 37.845 18.0583L38.0834 16.3533C38.4684 16.1883 38.835 15.9683 39.165 15.73L40.76 16.3717C40.9067 16.4267 41.0717 16.3717 41.145 16.225L42.4284 14.0067C42.5017 13.86 42.4834 13.695 42.355 13.6033L41.0167 12.54ZM36.25 14.2083C34.985 14.2083 33.9584 13.1817 33.9584 11.9167C33.9584 10.6517 34.985 9.625 36.25 9.625C37.515 9.625 38.5417 10.6517 38.5417 11.9167C38.5417 13.1817 37.515 14.2083 36.25 14.2083Z" fill="#0063EE"/>
<path d="M37.02 21.4133L36.1033 19.8183C36.0483 19.7083 35.92 19.6716 35.8283 19.7083L34.6917 20.1666C34.4533 19.9833 34.1967 19.8366 33.9217 19.7266L33.7567 18.5166C33.72 18.4066 33.61 18.3333 33.5 18.3333H31.6667C31.5567 18.3333 31.465 18.4066 31.4467 18.5349L31.2817 19.7449C31.0067 19.8549 30.75 20.0199 30.5117 20.1849L29.375 19.7266C29.265 19.6899 29.155 19.7266 29.1 19.8366L28.1833 21.4316C28.1283 21.5416 28.1467 21.6516 28.2383 21.7249L29.21 22.4766C29.1917 22.6233 29.1733 22.7699 29.1733 22.9166C29.1733 23.0633 29.1917 23.2283 29.21 23.3566L28.2383 24.1083C28.1467 24.1816 28.1283 24.3099 28.1833 24.4016L29.1 25.9966C29.155 26.1066 29.2833 26.1433 29.375 26.1066L30.5117 25.6483C30.75 25.8316 31.0067 25.9783 31.2817 26.0883L31.4467 27.2983C31.465 27.4266 31.5567 27.4999 31.6667 27.4999H33.5C33.61 27.4999 33.72 27.4266 33.72 27.2983L33.885 26.0883C34.16 25.9783 34.4167 25.8133 34.655 25.6483L35.7917 26.1066C35.9017 26.1433 36.0117 26.1066 36.0667 25.9966L36.9833 24.4016C37.0383 24.2916 37.02 24.1816 36.9283 24.1083L35.975 23.3566C35.9933 23.2099 36.0117 23.0633 36.0117 22.9166C36.0117 22.7699 35.9933 22.6049 35.975 22.4766L36.9467 21.7249C37.0383 21.6516 37.0567 21.5233 37.02 21.4133ZM32.5833 24.4383C31.74 24.4383 31.0617 23.7416 31.0617 22.9166C31.0617 22.0733 31.7583 21.3949 32.5833 21.3949C33.4083 21.3949 34.105 22.0916 34.105 22.9166C34.105 23.7599 33.4267 24.4383 32.5833 24.4383Z" fill="#0063EE"/>
<path d="M9.18996 16.4999H24.8283C25.3233 16.4999 25.7266 16.0966 25.7266 15.6016V15.5649C25.7266 15.0699 25.3233 14.6666 24.8283 14.6666H24.3333C24.3333 11.9533 22.8483 9.62492 20.6666 8.34159V10.0833C20.6666 10.5966 20.2633 10.9999 19.75 10.9999C19.2366 10.9999 18.8333 10.5966 18.8333 10.0833V7.58992C18.2466 7.44325 17.6416 7.33325 17 7.33325C16.3583 7.33325 15.7533 7.44325 15.1666 7.58992V10.0833C15.1666 10.5966 14.7633 10.9999 14.25 10.9999C13.7366 10.9999 13.3333 10.5966 13.3333 10.0833V8.34159C11.1516 9.62492 9.66663 11.9533 9.66663 14.6666H9.18996C8.69496 14.6666 8.29163 15.0699 8.29163 15.5649V15.6199C8.29163 16.0966 8.69496 16.4999 9.18996 16.4999Z" fill="#0063EE"/>
<path d="M17 23.8333C20.41 23.8333 23.2517 21.4866 24.0767 18.3333H9.92334C10.7483 21.4866 13.59 23.8333 17 23.8333Z" fill="#0063EE"/>
</svg>
