<svg width="28" height="28" viewBox="0 0 28 28" fill="none" xmlns="http://www.w3.org/2000/svg">
<path d="M14.0062 6.82128C10.0326 6.82128 6.8274 10.0265 6.8274 14.0001C6.8274 17.9738 10.0326 21.179 14.0062 21.179C17.9799 21.179 21.1851 17.9738 21.1851 14.0001C21.1851 10.0265 17.9799 6.82128 14.0062 6.82128ZM14.0062 18.6673C11.4384 18.6673 9.33906 16.5743 9.33906 14.0001C9.33906 11.426 11.4321 9.33294 14.0062 9.33294C16.5804 9.33294 18.6734 11.426 18.6734 14.0001C18.6734 16.5743 16.5741 18.6673 14.0062 18.6673ZM23.1532 6.52762C23.1532 7.45856 22.4034 8.20206 21.4787 8.20206C20.5478 8.20206 19.8043 7.45231 19.8043 6.52762C19.8043 5.60293 20.5541 4.85318 21.4787 4.85318C22.4034 4.85318 23.1532 5.60293 23.1532 6.52762ZM27.9078 8.22706C27.8016 5.98406 27.2893 3.99722 25.6461 2.36027C24.0091 0.723317 22.0223 0.210989 19.7793 0.0985266C17.4676 -0.0326794 10.5387 -0.0326794 8.22693 0.0985266C5.99018 0.204741 4.00335 0.717069 2.36015 2.35402C0.716948 3.99097 0.210867 5.97781 0.0984045 8.22081C-0.0328015 10.5325 -0.0328015 17.4615 0.0984045 19.7732C0.204619 22.0162 0.716948 24.003 2.36015 25.64C4.00335 27.2769 5.98393 27.7893 8.22693 27.9017C10.5387 28.0329 17.4676 28.0329 19.7793 27.9017C22.0223 27.7955 24.0091 27.2832 25.6461 25.64C27.2831 24.003 27.7954 22.0162 27.9078 19.7732C28.0391 17.4615 28.0391 10.5388 27.9078 8.22706ZM24.9213 22.2536C24.434 23.4782 23.4906 24.4216 22.2597 24.9152C20.4166 25.6462 16.0431 25.4775 14.0062 25.4775C11.9694 25.4775 7.58965 25.64 5.75276 24.9152C4.52817 24.4279 3.58474 23.4844 3.09115 22.2536C2.36015 20.4105 2.52884 16.0369 2.52884 14.0001C2.52884 11.9633 2.3664 7.58352 3.09115 5.74664C3.57849 4.52205 4.52192 3.57861 5.75276 3.08503C7.59589 2.35402 11.9694 2.52271 14.0062 2.52271C16.0431 2.52271 20.4229 2.36027 22.2597 3.08503C23.4843 3.57236 24.4278 4.5158 24.9213 5.74664C25.6523 7.58977 25.4837 11.9633 25.4837 14.0001C25.4837 16.0369 25.6523 20.4167 24.9213 22.2536Z" fill="#161616"/>
</svg>
