<svg width="19" height="20" viewBox="0 0 19 20" fill="none" xmlns="http://www.w3.org/2000/svg">
<path d="M18.7159 16.7924L15.0261 13.1876C14.8596 13.0249 14.6338 12.9345 14.397 12.9345H13.7937C14.8152 11.6581 15.4221 10.0527 15.4221 8.30634C15.4221 4.15188 11.9765 0.785645 7.72418 0.785645C3.47181 0.785645 0.0262451 4.15188 0.0262451 8.30634C0.0262451 12.4608 3.47181 15.827 7.72418 15.827C9.51173 15.827 11.1549 15.2341 12.4614 14.2361V14.8255C12.4614 15.0569 12.5539 15.2774 12.7204 15.4402L16.4103 19.045C16.7581 19.3849 17.3207 19.3849 17.6649 19.045L18.7122 18.0218C19.0601 17.6819 19.0601 17.1323 18.7159 16.7924ZM7.72418 12.9345C5.10762 12.9345 2.98699 10.8663 2.98699 8.30634C2.98699 5.75003 5.10392 3.67822 7.72418 3.67822C10.3407 3.67822 12.4614 5.74641 12.4614 8.30634C12.4614 10.8627 10.3444 12.9345 7.72418 12.9345Z" fill="#0063EE"/>
</svg>
