<svg width="14" height="14" viewBox="0 0 14 14" fill="none" xmlns="http://www.w3.org/2000/svg">
<path d="M13.6007 9.89302L10.5382 8.58049C10.4074 8.52474 10.262 8.51299 10.1239 8.54702C9.98579 8.58105 9.8625 8.65901 9.77256 8.76917L8.41628 10.4262C6.28774 9.42264 4.57475 7.70965 3.57116 5.58111L5.22822 4.22483C5.3386 4.13505 5.41673 4.01176 5.45077 3.87361C5.48481 3.73546 5.47292 3.58998 5.41689 3.45919L4.10437 0.396639C4.04288 0.255654 3.93412 0.140545 3.79684 0.0711602C3.65957 0.00177507 3.50239 -0.017537 3.3524 0.0165541L0.508603 0.672816C0.363998 0.706208 0.234981 0.787628 0.14261 0.903788C0.0502382 1.01995 -3.3311e-05 1.16399 1.65602e-08 1.3124C1.65602e-08 8.32619 5.68487 14.0001 12.6877 14.0001C12.8362 14.0002 12.9803 13.95 13.0965 13.8576C13.2127 13.7652 13.2942 13.6362 13.3276 13.4915L13.9838 10.6477C14.0177 10.497 13.998 10.3392 13.9281 10.2014C13.8581 10.0637 13.7424 9.95464 13.6007 9.89302Z" fill="#161616"/>
</svg>
