<svg width="20" height="29" viewBox="0 0 20 29" fill="none" xmlns="http://www.w3.org/2000/svg">
<path d="M8.97229 27.6116C1.40469 16.0923 0 14.91 0 10.6765C0 4.8775 4.47714 0.176514 10 0.176514C15.5229 0.176514 20 4.8775 20 10.6765C20 14.91 18.5953 16.0923 11.0277 27.6116C10.5311 28.3649 9.46885 28.3648 8.97229 27.6116ZM10 15.0515C12.3012 15.0515 14.1667 13.0928 14.1667 10.6765C14.1667 8.26025 12.3012 6.30151 10 6.30151C7.6988 6.30151 5.83333 8.26025 5.83333 10.6765C5.83333 13.0928 7.6988 15.0515 10 15.0515Z" fill="#0063EE"/>
</svg>
