<svg width="34" height="35" viewBox="0 0 34 35" fill="none" xmlns="http://www.w3.org/2000/svg">
<path d="M33.2776 26.4509L25.5019 18.6755C23.968 17.1417 21.6771 16.8429 19.8311 17.7525L12.7526 10.6743V6.55089L4.25308 0.176514L0.00332008 4.4261L6.37797 12.9253H10.5016L17.5801 20.0035C16.677 21.8494 16.9692 24.1402 18.5031 25.674L26.2788 33.4494C27.2483 34.4189 28.8154 34.4189 29.7782 33.4494L33.2776 29.9502C34.2405 28.9807 34.2405 27.4137 33.2776 26.4509ZM22.029 15.1165C23.9082 15.1165 25.6745 15.8469 27.0026 17.1749L28.2908 18.463C29.34 18.0049 30.336 17.3674 31.1992 16.5042C33.6628 14.0408 34.4994 10.5747 33.7159 7.42737C33.5698 6.82977 32.8195 6.62393 32.3812 7.06217L27.4409 12.0023L22.9321 11.252L22.1818 6.74345L27.1221 1.80331C27.5604 1.36507 27.3479 0.614752 26.7436 0.462033C23.5961 -0.314845 20.1299 0.521792 17.673 2.97858C15.7806 4.87098 14.8908 7.36761 14.9373 9.8576L20.3889 15.309C20.9268 15.1829 21.4845 15.1165 22.029 15.1165ZM15.1298 20.5612L11.3648 16.7964L1.24505 26.9223C-0.415016 28.5823 -0.415016 31.2715 1.24505 32.9315C2.90511 34.5915 5.59442 34.5915 7.25448 32.9315L15.4618 24.7245C14.9572 23.4032 14.8045 21.9623 15.1298 20.5612ZM4.25308 31.5172C3.37657 31.5172 2.65942 30.8001 2.65942 29.9236C2.65942 29.0405 3.36993 28.33 4.25308 28.33C5.13624 28.33 5.84675 29.0405 5.84675 29.9236C5.84675 30.8001 5.13624 31.5172 4.25308 31.5172Z" fill="#0063EE"/>
</svg>
